<?xml version="1.0" standalone="no"?>
<!DOCTYPE svg PUBLIC "-//W3C//DTD SVG 20010904//EN"
 "http://www.w3.org/TR/2001/REC-SVG-20010904/DTD/svg10.dtd">
<svg version="1.0" xmlns="http://www.w3.org/2000/svg"
 width="2084.000000pt" height="2084.000000pt" viewBox="0 0 2084.000000 2084.000000"
 preserveAspectRatio="xMidYMid meet">
<metadata>
Created by potrace 1.11, written by Peter Selinger 2001-2013
</metadata>
<g transform="translate(0.000000,2084.000000) scale(0.100000,-0.100000)"
fill="#000000" stroke="none">
<path d="M5285 16817 c16 -7202 23 -9720 29 -9812 7 -113 17 -241 21 -261 2
-11 6 -54 10 -96 4 -43 10 -78 14 -78 3 0 21 42 40 93 54 147 225 591 279 722
79 192 123 298 137 330 7 17 41 95 76 175 188 435 524 1140 707 1482 22 40 63
118 92 173 29 55 65 123 80 150 15 28 41 75 57 105 38 70 57 103 157 279 44
79 96 171 115 205 50 90 347 583 431 716 40 63 78 124 84 135 6 11 25 40 41
65 17 25 32 50 35 55 13 28 428 650 542 815 22 30 49 71 62 90 13 19 69 98
124 175 56 77 125 173 154 214 189 264 688 917 893 1166 18 22 86 105 151 185
99 121 278 335 367 440 87 102 272 316 277 320 3 3 37 41 75 85 39 44 77 87
85 95 8 8 47 51 85 94 39 44 77 87 85 96 8 9 35 39 60 66 25 27 97 105 160
174 63 68 133 143 155 166 22 23 110 116 195 206 85 89 320 328 521 530 l367
367 -45 26 c-25 14 -48 25 -50 25 -3 0 -17 8 -31 18 -15 11 -76 45 -137 77
-60 32 -132 70 -160 85 -260 143 -823 407 -1220 574 -88 37 -169 72 -180 77
-138 63 -738 284 -1085 399 -310 103 -990 304 -1101 325 -11 2 -23 6 -27 9 -5
3 -19 7 -33 10 -13 2 -89 21 -169 41 -80 19 -185 45 -235 56 -116 27 -109 25
-185 43 -36 8 -77 17 -93 20 -15 3 -35 7 -45 10 -9 3 -28 7 -42 10 -14 2 -104
20 -200 40 -96 19 -191 38 -210 41 -19 3 -42 8 -50 10 -8 2 -31 6 -50 9 -19 2
-46 7 -60 10 -30 7 -45 10 -235 41 -82 14 -159 27 -171 29 -12 2 -45 7 -75 11
-30 3 -61 8 -69 10 -14 4 -84 14 -140 20 -22 2 -145 20 -210 30 -14 2 -50 7
-80 10 -30 3 -89 10 -130 15 -41 5 -104 12 -140 16 -36 3 -75 7 -87 9 l-22 3
4 -1831z"/>
<path d="M15509 18157 c-56 -43 -125 -98 -393 -312 -262 -209 -399 -321 -610
-499 -100 -83 -401 -340 -406 -345 -3 -3 -41 -37 -85 -76 -44 -38 -91 -80
-105 -93 -14 -13 -53 -46 -86 -74 -59 -49 -69 -70 -39 -81 10 -4 267 -185 310
-219 6 -4 89 -67 185 -140 175 -132 478 -373 600 -477 35 -31 78 -67 94 -81
30 -25 67 -58 205 -180 81 -71 83 -73 231 -210 56 -52 108 -98 114 -102 9 -5
11 208 9 855 -1 474 -3 1129 -3 1455 0 325 -2 592 -3 592 -1 0 -9 -6 -18 -13z"/>
<path d="M12452 15463 c-279 -280 -543 -546 -587 -593 -284 -303 -346 -371
-391 -419 -27 -30 -56 -62 -64 -71 -8 -9 -51 -56 -95 -105 -44 -48 -84 -93
-90 -99 -5 -6 -73 -83 -150 -171 -119 -134 -201 -229 -369 -425 -46 -54 -314
-378 -351 -425 -22 -27 -42 -52 -45 -55 -3 -3 -68 -84 -144 -180 -77 -96 -156
-195 -175 -220 -20 -24 -45 -57 -56 -72 -11 -15 -119 -159 -241 -320 -427
-566 -776 -1070 -1183 -1706 -50 -79 -91 -146 -91 -148 0 -3 -13 -24 -28 -47
-100 -147 -503 -835 -655 -1119 -25 -47 -55 -101 -65 -120 -47 -83 -324 -614
-341 -653 -5 -11 -51 -108 -104 -215 -52 -107 -118 -247 -147 -310 -29 -63
-67 -146 -85 -185 -54 -114 -117 -258 -205 -465 -45 -107 -88 -208 -95 -225
-230 -535 -544 -1429 -754 -2146 l-31 -106 38 -69 c188 -338 393 -623 692
-964 101 -116 381 -385 495 -475 27 -22 59 -48 70 -59 40 -37 283 -215 380
-279 55 -37 105 -71 112 -77 7 -5 14 -10 17 -10 3 0 45 -24 94 -54 352 -215
801 -409 1211 -526 61 -17 119 -33 128 -35 10 -2 54 -12 98 -23 132 -34 318
-69 455 -87 25 -3 56 -8 70 -10 14 -2 57 -7 95 -11 39 -4 84 -8 100 -10 286
-28 762 -24 1040 11 181 22 281 37 365 55 25 5 61 12 80 14 20 3 99 21 175 40
497 123 886 276 1320 518 132 74 283 170 468 298 27 18 232 177 266 205 186
155 392 351 541 515 47 51 90 98 95 104 6 6 28 34 50 61 63 78 69 87 81 99 56
60 280 384 374 541 29 50 60 101 69 115 35 58 221 423 221 435 0 3 9 24 19 48
58 124 147 366 201 542 33 105 114 426 124 485 3 19 8 45 10 56 2 12 7 37 10
55 3 19 7 43 10 54 2 11 7 43 10 70 4 28 9 57 11 65 4 15 14 106 20 171 2 20
6 63 9 95 3 32 9 97 12 144 7 83 6 1136 -1 4235 -2 847 -4 1767 -5 2045 l-1
505 -50 55 c-325 351 -783 804 -979 969 -14 12 -38 34 -55 50 -109 102 -521
441 -725 597 -36 27 -67 51 -70 54 -8 9 -219 163 -325 238 -55 39 -105 75
-111 80 -6 5 -51 36 -100 68 -49 33 -91 61 -94 64 -9 9 -59 40 -65 40 -4 0
-234 -228 -513 -507z"/>
</g>
</svg>
